HIERARCHY
ROOT Hips
{
	OFFSET 0.000000 88.474243 0.000000
	CHANNELS 6 Xposition Yposition Zposition Zrotation Yrotation Xrotation 
	JOINT Hips_Spine
	{
		OFFSET 0.000000 0.000000 0.000000
		CHANNELS 3 Zrotation Yrotation Xrotation
		JOINT Spine
		{
			OFFSET 0.005100 8.711998 -0.691000
			CHANNELS 3 Zrotation Yrotation Xrotation
			JOINT Spine1
			{
				OFFSET -0.009200 8.660301 -1.275000
				CHANNELS 3 Zrotation Yrotation Xrotation
				JOINT Spine2
				{
					OFFSET 0.006300 9.852501 -1.857000
					CHANNELS 3 Zrotation Yrotation Xrotation
					JOINT Spine2_Neck
					{
						OFFSET 0.000000 0.000000 0.000000
						CHANNELS 3 Zrotation Yrotation Xrotation
						JOINT Neck
						{
							OFFSET 0.016300 11.420799 -0.263300
							CHANNELS 3 Zrotation Yrotation Xrotation
							End Site #name: Head
							{
								OFFSET -0.019200 9.262405 2.362500
							}
						}
					}
					JOINT Spine2_LeftShoulder
					{
						OFFSET 0.000000 0.000000 0.000000
						CHANNELS 3 Zrotation Yrotation Xrotation
						JOINT LeftShoulder
						{
							OFFSET 5.616900 6.732201 -0.345700
							CHANNELS 3 Zrotation Yrotation Xrotation
							JOINT LeftArm
							{
								OFFSET 10.664888 -0.183372 -2.440700
								CHANNELS 3 Zrotation Yrotation Xrotation
								JOINT LeftForeArm
								{
									OFFSET 27.459126 0.000000 0.000000
									CHANNELS 3 Zrotation Yrotation Xrotation
									End Site #name: LeftHand
									{
										OFFSET 21.306858 0.000000 0.000000
									}
								}
							}
						}
					}
					JOINT Spine2_RightShoulder
					{
						OFFSET 0.000000 0.000000 0.000000
						CHANNELS 3 Zrotation Yrotation Xrotation
						JOINT RightShoulder
						{
							OFFSET -5.580300 6.737503 -0.344400
							CHANNELS 3 Zrotation Yrotation Xrotation
							JOINT RightArm
							{
								OFFSET -10.679335 -0.188484 -2.383900
								CHANNELS 3 Zrotation Yrotation Xrotation
								JOINT RightForeArm
								{
									OFFSET -27.503529 0.000000 0.000000
									CHANNELS 3 Zrotation Yrotation Xrotation
									End Site #name: RightHand
									{
										OFFSET -21.306808 0.000000 0.000000
									}
								}
							}
						}
					}
				}
			}
		}
	}
	JOINT Hips_LeftUpLeg
	{
		OFFSET 0.000000 0.000000 0.000000
		CHANNELS 3 Zrotation Yrotation Xrotation
		JOINT LeftUpLeg
		{
			OFFSET 6.857700 -6.739601 0.312100
			CHANNELS 3 Zrotation Yrotation Xrotation
			JOINT LeftLeg
			{
				OFFSET -0.367590 -34.731552 -4.572400
				CHANNELS 3 Zrotation Yrotation Xrotation
				End Site #name: LeftFoot
				{
					OFFSET 0.367590 -34.656704 -6.067400
				}
			}
		}
	}
	JOINT Hips_RightUpLeg
	{
		OFFSET 0.000000 0.000000 0.000000
		CHANNELS 3 Zrotation Yrotation Xrotation
		JOINT RightUpLeg
		{
			OFFSET -6.876100 -6.733299 0.301000
			CHANNELS 3 Zrotation Yrotation Xrotation
			JOINT RightLeg
			{
				OFFSET 0.347353 -34.795158 -4.515900
				CHANNELS 3 Zrotation Yrotation Xrotation
				End Site #name: RightFoot
				{
					OFFSET -0.347353 -34.589367 -6.070300
				}
			}
		}
	}
}
MOTION
Frames: 10
Frame Time: 0.041667
5.846867 0.769675 1.572623 -4.050346 -9.337809 -1.059102 -0.000000 0.000000 -0.000000 -0.237859 0.609487 4.414974 -0.835889 1.272313 8.848731 0.000000 0.000000 0.000000 -0.883732 1.197093 8.773588 1.304652 -2.322522 3.132899 -0.833548 1.254582 8.701572 3.084424 0.911682 0.333336 -74.116774 -11.351383 26.521854 -179.569201 -86.928527 179.381351 -0.814904 1.223568 8.608084 -3.970393 -1.985243 0.975189 78.788782 -9.374448 4.481043 -175.300673 83.450054 -175.694781 -0.000000 -0.000000 -0.000000 1.371610 1.083686 -20.279565 -0.900694 0.459382 28.950126 0.000000 0.000000 -0.000000 -7.705671 0.481614 -15.778943 0.265028 -0.677710 18.067978 
6.043914 0.793582 1.608628 -4.015255 -9.538112 -1.043283 -0.000000 0.000000 -0.000000 -0.244842 0.623599 4.394388 -0.815479 1.257023 8.795108 0.000000 0.000000 0.000000 -0.865901 1.185606 8.693277 1.060896 -2.566963 3.154330 -0.815391 1.253140 8.629104 3.036745 0.876349 0.336502 -74.154230 -10.984136 26.336981 179.934679 -86.988133 179.863980 -0.796235 1.208121 8.547061 -3.930773 -1.961108 0.962671 78.896556 -9.483694 4.262398 -175.205528 83.431959 -175.600927 -0.000000 -0.000000 -0.000000 1.168714 1.063536 -20.066107 -0.882894 0.461536 28.559015 0.000000 0.000000 -0.000000 -7.838499 0.656923 -15.783047 0.244092 -0.671771 17.870497 
6.226216 0.812789 1.638922 -3.984024 -9.694703 -1.042780 -0.000000 0.000000 -0.000000 -0.248917 0.640722 4.385373 -0.793730 1.244343 8.741832 0.000000 0.000000 0.000000 -0.846232 1.180870 8.617148 0.935720 -2.760343 3.179667 -0.797870 1.257250 8.563061 3.005556 0.853841 0.345652 -74.215035 -10.598696 26.127664 179.477863 -87.021301 -179.688052 -0.778647 1.196368 8.497897 -3.898408 -1.924157 0.959350 78.981451 -9.598123 4.091154 -175.145934 83.401734 -175.541465 -0.000000 -0.000000 -0.000000 1.006247 1.065688 -19.851648 -0.864545 0.470541 28.156521 0.000000 0.000000 -0.000000 -7.949316 0.821907 -15.782750 0.223162 -0.668241 17.765934 
6.391993 0.827959 1.662537 -3.953252 -9.813301 -1.056173 -0.000000 0.000000 -0.000000 -0.249280 0.656732 4.380566 -0.770899 1.237651 8.692842 0.000000 0.000000 0.000000 -0.826052 1.179635 8.538561 0.858279 -2.912633 3.226724 -0.779288 1.265458 8.502042 2.983922 0.842415 0.356361 -74.280345 -10.259776 25.913693 179.065193 -87.041883 -179.286474 -0.761484 1.189048 8.455767 -3.857053 -1.879870 0.962564 79.033407 -9.718178 3.953647 -175.112952 83.347075 -175.508496 -0.000000 -0.000000 -0.000000 0.878279 1.089837 -19.646426 -0.850787 0.475794 27.788918 0.000000 0.000000 -0.000000 -8.035555 0.971575 -15.764154 0.204347 -0.674638 17.724239 
6.538223 0.839731 1.678887 -3.928160 -9.957337 -1.067975 -0.000000 0.000000 -0.000000 -0.252023 0.672477 4.351316 -0.748163 1.236502 8.646836 0.000000 0.000000 0.000000 -0.804717 1.184271 8.464443 0.828931 -2.959794 3.262646 -0.761503 1.275536 8.450474 2.972716 0.843161 0.368431 -74.360560 -9.946945 25.701571 178.661760 -87.056508 -178.893924 -0.745142 1.186221 8.420372 -3.821072 -1.839231 0.967715 79.044177 -9.830524 3.850568 -175.087559 83.299742 -175.482131 -0.000000 -0.000000 -0.000000 0.775427 1.125171 -19.466815 -0.845832 0.471946 27.504969 0.000000 0.000000 -0.000000 -8.115078 1.085705 -15.736762 0.201976 -0.690179 17.704851 
6.660277 0.846576 1.685721 -3.896535 -10.113146 -1.080791 -0.000000 0.000000 -0.000000 -0.257962 0.688729 4.299944 -0.727122 1.241167 8.605567 0.000000 0.000000 0.000000 -0.785046 1.192550 8.401003 0.817663 -2.985846 3.286279 -0.744629 1.287460 8.407350 2.974247 0.856374 0.382517 -74.451779 -9.680026 25.512186 178.217304 -87.074245 -178.461677 -0.729367 1.187304 8.392618 -3.764556 -1.803051 0.974271 79.023929 -9.919038 3.777088 -175.081704 83.225710 -175.477493 -0.000000 -0.000000 -0.000000 0.677408 1.160635 -19.314528 -0.846435 0.464359 27.327248 0.000000 0.000000 -0.000000 -8.204403 1.154431 -15.704795 0.233001 -0.717050 17.685934 
6.752979 0.849102 1.683320 -3.855501 -10.265255 -1.087175 -0.000000 0.000000 -0.000000 -0.261305 0.700824 4.248148 -0.708368 1.248246 8.568213 0.000000 0.000000 0.000000 -0.766756 1.203693 8.349869 0.819509 -2.990029 3.293362 -0.729438 1.300628 8.374210 2.983055 0.876606 0.396666 -74.548979 -9.449549 25.324719 177.741779 -87.094761 -177.999441 -0.713660 1.191940 8.370978 -3.711443 -1.789186 0.977871 78.998290 -9.974478 3.727820 -175.081779 83.159814 -175.477141 -0.000000 -0.000000 -0.000000 0.574625 1.180027 -19.191954 -0.852358 0.452964 27.198272 0.000000 0.000000 -0.000000 -8.294302 1.199443 -15.670773 0.257348 -0.732648 17.674384 
6.811008 0.848263 1.673362 -3.811153 -10.417634 -1.076227 -0.000000 0.000000 -0.000000 -0.263444 0.710780 4.195610 -0.690685 1.256809 8.529058 0.000000 0.000000 0.000000 -0.749292 1.217091 8.307306 0.834311 -2.977017 3.291491 -0.714758 1.314458 8.349348 2.993338 0.899515 0.411012 -74.631504 -9.254143 25.168983 177.277858 -87.114211 -177.547289 -0.699726 1.199166 8.354887 -3.672218 -1.787622 0.981622 78.945143 -10.046133 3.677029 -175.081108 83.098137 -175.476989 -0.000000 -0.000000 -0.000000 0.471965 1.186953 -19.103877 -0.862150 0.435396 27.124810 0.000000 0.000000 -0.000000 -8.385741 1.223721 -15.663340 0.279822 -0.737888 17.694104 
6.827615 0.845940 1.659689 -3.765368 -10.551627 -1.057804 -0.000000 0.000000 -0.000000 -0.261249 0.717278 4.146111 -0.673249 1.264489 8.487725 0.000000 0.000000 0.000000 -0.731986 1.231699 8.265461 0.856755 -2.947570 3.271707 -0.700069 1.326851 8.325031 2.999552 0.917360 0.426887 -74.680547 -9.085152 25.045420 176.860380 -87.137888 -177.139881 -0.686725 1.208957 8.342044 -3.645893 -1.793622 0.981140 78.900371 -10.116535 3.631022 -175.105266 83.030606 -175.498283 -0.000000 -0.000000 -0.000000 0.373688 1.182759 -19.044273 -0.872880 0.416470 27.106143 0.000000 0.000000 -0.000000 -8.483786 1.217345 -15.661123 0.297246 -0.738859 17.708584 
6.797159 0.843261 1.645889 -3.690648 -10.649285 -1.038329 0.000000 0.000000 -0.000000 -0.257751 0.720927 4.104123 -0.659027 1.271963 8.441574 0.000000 0.000000 0.000000 -0.714610 1.246895 8.228047 0.890086 -2.904130 3.232683 -0.685610 1.339503 8.303574 3.002476 0.929212 0.440524 -74.710130 -8.927247 24.960702 176.422309 -87.198605 -176.709789 -0.675577 1.220200 8.334007 -3.635338 -1.815383 0.979189 78.843339 -10.184341 3.601975 -175.131779 82.974952 -175.519880 -0.000000 -0.000000 -0.000000 0.294493 1.175081 -19.018391 -0.888102 0.398190 27.141481 0.000000 0.000000 -0.000000 -8.569229 1.190411 -15.674957 0.309430 -0.741192 17.753418 
